<svg width="55" height="55" viewBox="0 0 55 55" fill="none" xmlns="http://www.w3.org/2000/svg">
<mask id="mask0_72_953" style="mask-type:luminance" maskUnits="userSpaceOnUse" x="0" y="0" width="55" height="55">
<path d="M16.1108 0.190433C13.1847 0.328538 11.1862 0.797215 9.43984 1.48151C7.63201 2.18629 6.09951 3.13079 4.57501 4.66154C3.04871 6.19319 2.11138 7.7284 1.41196 9.53805C0.734792 11.2889 0.275916 13.2883 0.146705 16.2162C0.0184174 19.1494 -0.0110021 20.085 0.00329785 27.5526C0.0175429 35.0193 0.0504989 35.9566 0.190375 38.8907C0.330245 41.8159 0.797173 43.8136 1.48147 45.5608C2.18713 47.3687 3.13067 48.9003 4.66229 50.4258C6.19305 51.9512 7.72914 52.8876 9.53963 53.588C11.2887 54.2643 13.289 54.7249 16.2159 54.8532C19.1491 54.9824 20.0855 55.0109 27.5513 54.9967C35.0205 54.9824 35.957 54.9494 38.8901 54.8104C41.8162 54.6706 43.8129 54.2019 45.5611 53.5194C47.3689 52.8119 48.9014 51.8701 50.4259 50.3385C51.9504 48.8077 52.8877 47.2716 53.5872 45.461C54.2644 43.712 54.725 41.7117 54.8524 38.7865C54.9807 35.8515 55.0111 34.9141 54.9968 27.4474C54.9825 19.9798 54.9487 19.0443 54.8097 16.112C54.6707 13.1841 54.202 11.1873 53.5186 9.43916C52.8121 7.6313 51.8694 6.10052 50.3386 4.57423C48.8079 3.04971 47.2718 2.11057 45.4613 1.41291C43.7114 0.735736 41.7119 0.274182 38.785 0.14766C35.8518 0.0175739 34.9154 -0.0109216 27.447 0.00332892C19.9804 0.0175794 19.044 0.0496664 16.1108 0.190433ZM16.4316 49.9036C13.7505 49.7869 12.2946 49.3414 11.3244 48.9681C10.0395 48.4709 9.12268 47.8748 8.15772 46.917C7.19455 45.9556 6.59667 45.0414 6.09505 43.7592C5.71812 42.7889 5.26463 41.3347 5.13901 38.6537C5.00267 35.7552 4.97151 34.8856 4.95813 27.5428C4.94388 20.2017 4.97058 19.3321 5.09713 16.4309C5.21204 13.7516 5.66026 12.294 6.03267 11.3245C6.52983 10.0379 7.12412 9.12283 8.08375 8.15788C9.04513 7.19291 9.95929 6.59681 11.2423 6.09518C12.2118 5.71649 13.6659 5.26652 16.346 5.13913C19.2462 5.00189 20.1149 4.9725 27.4559 4.95825C34.7986 4.94397 35.6683 4.96983 38.5694 5.09725C41.2486 5.21396 42.7063 5.6577 43.6748 6.03281C44.9605 6.52998 45.8774 7.12251 46.8414 8.08392C47.8055 9.04533 48.4034 9.95772 48.905 11.2434C49.2836 12.2102 49.7336 13.6661 49.8602 16.3454C49.9982 19.2456 50.0294 20.1153 50.0428 27.4563C50.057 34.7992 50.0303 35.6688 49.9029 38.5681C49.7862 41.2492 49.3416 42.706 48.9674 43.6772C48.4702 44.9612 47.8759 45.878 46.9154 46.843C45.9549 47.8044 45.0407 48.404 43.7568 48.9057C42.7891 49.2835 41.3333 49.7343 38.6549 49.8617C35.7547 49.9981 34.886 50.0292 27.5423 50.0426C20.2014 50.0569 19.3327 50.0293 16.4316 49.9036ZM38.8501 12.8001C38.8536 14.6213 40.3344 16.0959 42.1556 16.0924C43.9777 16.0888 45.4524 14.6088 45.4497 12.7876C45.4461 10.9663 43.9653 9.49085 42.1432 9.49441C40.3211 9.49797 38.8465 10.9788 38.8501 12.8001ZM13.3799 27.5267C13.395 35.3258 19.7292 41.6341 27.5263 41.619C35.3243 41.6038 41.6362 35.2714 41.6211 27.4724C41.6059 19.676 35.2709 13.3641 27.472 13.3792C19.6748 13.3944 13.3647 19.7295 13.3799 27.5267ZM18.3329 27.5169C18.324 22.4551 22.4209 18.3431 27.4818 18.3341C32.5436 18.3244 36.6564 22.4194 36.6662 27.4822C36.676 32.5449 32.5792 36.656 27.5165 36.6659C22.4556 36.6756 18.3427 32.5797 18.3329 27.5169Z" fill="white"/>
</mask>
<g mask="url(#mask0_72_953)">
<mask id="mask1_72_953" style="mask-type:luminance" maskUnits="userSpaceOnUse" x="-3" y="-3" width="61" height="61">
<path d="M57.1778 -2.15378H-2.22217V57.247H57.1778V-2.15378Z" fill="white"/>
</mask>
<g mask="url(#mask1_72_953)">
<mask id="mask2_72_953" style="mask-type:luminance" maskUnits="userSpaceOnUse" x="-3" y="-3" width="61" height="61">
<path d="M57.4527 -2.42883H-2.49731V57.522H57.4527V-2.42883Z" fill="white"/>
</mask>
<g mask="url(#mask2_72_953)">
<mask id="mask3_72_953" style="mask-type:luminance" maskUnits="userSpaceOnUse" x="-3" y="-3" width="61" height="61">
<path d="M57.4527 -2.42883H-2.49731V57.522H57.4527V-2.42883Z" fill="white"/>
</mask>
<g mask="url(#mask3_72_953)">
<rect x="-2.51685" y="-2.43777" width="59.9808" height="59.9808" fill="white"/>
</g>
</g>
</g>
</g>
</svg>
