<svg width="56" height="56" viewBox="0 0 56 56" fill="none" xmlns="http://www.w3.org/2000/svg">
<path d="M49.8049 0C51.4479 0 53.0236 0.652682 54.1854 1.81446C55.3472 2.97625 55.9998 4.55196 55.9998 6.19497V49.5598C55.9998 51.2028 55.3472 52.7785 54.1854 53.9403C53.0236 55.102 51.4479 55.7547 49.8049 55.7547H6.44009C4.79708 55.7547 3.22136 55.102 2.05958 53.9403C0.897799 52.7785 0.245117 51.2028 0.245117 49.5598V6.19497C0.245117 4.55196 0.897799 2.97625 2.05958 1.81446C3.22136 0.652682 4.79708 0 6.44009 0H49.8049ZM48.2561 48.011V31.5943C48.2561 28.9162 47.1923 26.3478 45.2986 24.4541C43.4049 22.5604 40.8364 21.4965 38.1583 21.4965C35.5255 21.4965 32.459 23.1072 30.9722 25.5233V22.0851H22.3302V48.011H30.9722V32.7404C30.9722 30.3554 32.8926 28.4039 35.2777 28.4039C36.4278 28.4039 37.5308 28.8608 38.344 29.6741C39.1573 30.4873 39.6141 31.5903 39.6141 32.7404V48.011H48.2561ZM12.2634 17.222C13.6435 17.222 14.9671 16.6738 15.943 15.6979C16.9189 14.722 17.4671 13.3984 17.4671 12.0182C17.4671 9.13758 15.144 6.78349 12.2634 6.78349C10.875 6.78349 9.54354 7.33501 8.56183 8.31671C7.58013 9.29842 7.02861 10.6299 7.02861 12.0182C7.02861 14.8989 9.3827 17.222 12.2634 17.222ZM16.5689 48.011V22.0851H7.98883V48.011H16.5689Z" fill="white"/>
</svg>
